<svg width="288" height="72" viewBox="0 0 288 72" fill="none" xmlns="http://www.w3.org/2000/svg">
<path d="M5.08856 66.9388C10.1771 72 18.367 72 34.7468 72H37.6424C54.0222 72 62.2121 72 67.3007 66.9388C72.3892 61.8776 72.3892 53.7316 72.3892 37.4398V34.5598C72.3892 18.268 72.3892 10.1221 67.3007 5.0609C62.2121 0 54.0222 0 37.6424 0H34.7468C18.367 0 10.1771 0 5.08855 5.0609C0 10.1221 0 18.268 0 34.5598V37.4398C0 53.7316 0 61.8776 5.08856 66.9388Z" fill="#0077FF"/>
<path fill-rule="evenodd" clip-rule="evenodd" d="M55.8885 47.8568L50.9974 46.6415C50.4085 46.4735 49.9925 45.9464 49.9716 45.3337L49.3612 27.4284C49.1847 25.0584 47.416 23.1736 45.5676 22.6185C45.4638 22.5873 45.353 22.6293 45.2916 22.7181C45.2291 22.8084 45.2532 22.9333 45.3404 23.0004C45.7968 23.3518 47.053 24.4986 47.053 26.4767L47.0494 49.8874C47.0494 52.148 44.9018 53.8059 42.6865 53.2555L37.7198 52.0215C37.1691 51.8298 36.7865 51.3197 36.7665 50.7313L36.1562 32.8247C35.9796 30.4547 34.2109 28.5699 32.3625 28.0148C32.2588 27.9836 32.148 28.0256 32.0865 28.1144C32.0241 28.2047 32.0482 28.3296 32.1353 28.3966C32.5917 28.748 33.848 29.8949 33.848 31.873L33.8442 51.3871L33.847 51.3876V55.286C33.847 57.5466 31.6994 59.2045 29.4841 58.6541L15.4554 55.1685C13.505 54.6839 12.1375 52.9486 12.1375 50.9584L12.1375 27.511C12.1375 25.2505 14.2851 23.5926 16.5004 24.143L25.3399 26.3392V22.1125C25.3399 19.8519 27.4875 18.194 29.7028 18.7444L38.5419 20.9406V16.7138C38.5419 14.4532 40.6895 12.7953 42.9048 13.3457L56.9335 16.8313C58.8839 17.3159 60.2514 19.0511 60.2514 21.0414V44.4887C60.2514 46.7493 58.1038 48.4072 55.8885 47.8568Z" fill="white"/>
<path d="M113.133 41.3637C118.568 39.9737 122.139 35.8035 122.139 30.3462C122.139 23.6018 116.756 18.8653 109.199 18.8653H95.7405V55.1614H101.952V41.8271H106.352L115.98 55.1614H123.278L113.133 41.3637ZM109.199 24.5285C113.081 24.5285 115.772 26.8968 115.772 30.3462C115.772 33.7956 113.081 36.1639 109.199 36.1639H101.952V24.5285H109.199Z" fill="white"/>
<path d="M137.257 55.6762C140.518 55.6762 143.521 53.9773 145.229 51.1457L146.419 55.1614H150.871V28.3898H144.918V43.8864C144.918 47.6962 142.382 50.3734 138.914 50.3734C135.498 50.3734 133.116 47.6962 133.116 43.8864V28.3898H127.164V44.5557C127.164 50.9912 131.512 55.6762 137.257 55.6762Z" fill="white"/>
<path d="M169.868 55.6762C176.752 55.6762 182.446 51.7635 182.446 45.2765C182.446 38.0173 176.494 35.9064 171.369 34.156C167.383 32.8174 163.915 31.5818 163.915 28.3383C163.915 25.5067 166.555 24.0137 169.661 24.0137C172.922 24.0137 175.251 25.7126 176.545 28.5957L182.446 27.6175C180.583 21.9543 175.872 18.3504 169.454 18.3504C162.828 18.3504 157.549 22.1602 157.549 28.6472C157.549 35.9579 163.501 37.9658 168.626 39.6648C172.56 40.9519 176.079 42.1875 176.079 45.4824C176.079 48.3655 173.44 50.013 169.92 50.013C165.882 50.013 163.708 48.1081 161.793 44.6587L155.789 45.6884C157.549 51.8149 163.139 55.6762 169.868 55.6762Z" fill="white"/>
<path d="M198.64 50.013C196.621 50.013 195.637 49.0348 195.637 47.027V33.5382H203.661V28.3898H195.637V20.6672H191.186L189.685 28.3898H185.285V33.5382H189.685V47.027C189.685 52.2783 192.739 55.1614 198.64 55.1614H203.661L204.178 50.013H198.64Z" fill="white"/>
<path d="M221.189 55.6762C229.626 55.6762 235.578 49.91 235.578 41.7756C235.578 33.6411 229.626 27.8749 221.189 27.8749C212.751 27.8749 206.799 33.6411 206.799 41.7756C206.799 49.91 212.751 55.6762 221.189 55.6762ZM221.189 50.2704C216.323 50.2704 213.01 46.821 213.01 41.7756C213.01 36.7302 216.323 33.2808 221.189 33.2808C226.054 33.2808 229.367 36.7302 229.367 41.7756C229.367 46.821 226.054 50.2704 221.189 50.2704Z" fill="white"/>
<path d="M246.706 55.1614V39.3559C246.706 35.9579 248.363 34.053 251.986 34.053H255.402L254.885 28.3898H253.746C250.588 28.3898 248.155 29.265 246.344 32.2511L245.205 28.3898H240.753V55.1614H246.706Z" fill="white"/>
<path d="M284.693 41.4667C284.693 33.7441 278.895 27.8749 270.717 27.8749C262.538 27.8749 256.741 33.6926 256.741 41.7756C256.741 49.8586 262.538 55.6762 270.717 55.6762C276.307 55.6762 281.587 53.0506 283.606 47.9537L278.015 47.027C276.721 48.9319 274.237 50.2704 271.079 50.2704C266.524 50.2704 263.522 47.4903 262.953 43.3716H284.589C284.641 42.8053 284.693 42.1875 284.693 41.4667ZM270.717 33.0233C274.444 33.0233 277.239 35.3916 278.222 38.738H263.315C264.298 35.2886 267.094 33.0233 270.717 33.0233Z" fill="white"/>
</svg>